<svg xmlns="http://www.w3.org/2000/svg" width="733.7581787109375" height="980.8720703125" viewBox="-479.2918701171875 -70.50505065917969 733.7581787109375 980.8720703125"><title>Neo4j Graph Visualization</title><desc>Created using Neo4j (http://www.neo4j.com/)</desc><g class="layer relationships"><g class="relationship" transform="translate(-1.1630065939049246 -34.005047225563544) rotate(405.87730604450337)"><path class="outline" fill="#A5ABB6" stroke="none" d="M 32.5 0.5 L 137.87584395499246 0.5 L 137.87584395499246 -0.5 L 32.5 -0.5 Z M 169.87584395499246 0.5 L 275.2516879099849 0.5 L 275.2516879099849 3.5 L 282.2516879099849 0 L 275.2516879099849 -3.5 L 275.2516879099849 -0.5 L 169.87584395499246 -0.5 Z"/><text text-anchor="middle" pointer-events="none" font-size="8px" fill="#000000" x="153.87584395499246" y="3" font-family="sans-serif">_PROP</text></g><g class="relationship" transform="translate(-1.1630065939049246 -34.005047225563544) rotate(492.42113288078656)"><path class="outline" fill="#A5ABB6" stroke="none" d="M 32.5 0.5 L 137.34941561483006 0.5 L 137.34941561483006 -0.5 L 32.5 -0.5 Z M 169.34941561483006 0.5 L 274.19883122966013 0.5 L 274.19883122966013 3.5 L 281.19883122966013 0 L 274.19883122966013 -3.5 L 274.19883122966013 -0.5 L 169.34941561483006 -0.5 Z"/><text text-anchor="middle" pointer-events="none" font-size="8px" fill="#000000" x="153.34941561483006" y="3" transform="rotate(180 153.34941561483006 0)" font-family="sans-serif">_PROP</text></g><g class="relationship" transform="translate(-1.1630065939049246 -34.005047225563544) rotate(539.1943594933243)"><path class="outline" fill="#A5ABB6" stroke="none" d="M 32.5 0.5 L 40.765691454301155 0.5 L 40.765691454301155 -0.5 L 32.5 -0.5 Z M 72.76569145430116 0.5 L 81.03138290860231 0.5 L 81.03138290860231 3.5 L 88.03138290860231 0 L 81.03138290860231 -3.5 L 81.03138290860231 -0.5 L 72.76569145430116 -0.5 Z"/><text text-anchor="middle" pointer-events="none" font-size="8px" fill="#000000" x="56.765691454301155" y="3" transform="rotate(180 56.765691454301155 0)" font-family="sans-serif">_PROP</text></g><g class="relationship" transform="translate(-321.23819236885095 194.7003603781907) rotate(398.48987478497395)"><path class="outline" fill="#A5ABB6" stroke="none" d="M 32.5 0.5 L 175.37836338555474 0.5 L 175.37836338555474 -0.5 L 32.5 -0.5 Z M 216.37836338555474 0.5 L 359.25672677110947 0.5 L 359.25672677110947 3.5 L 366.25672677110947 0 L 359.25672677110947 -3.5 L 359.25672677110947 -0.5 L 216.37836338555474 -0.5 Z"/><text text-anchor="middle" pointer-events="none" font-size="8px" fill="#000000" x="195.87836338555474" y="3" font-family="sans-serif">_TARGET</text></g><g class="relationship" transform="translate(-321.23819236885095 194.7003603781907) rotate(324.4528082050731)"><path class="outline" fill="#A5ABB6" stroke="none" d="M 32.5 0.5 L 171.1941077002979 0.5 L 171.1941077002979 -0.5 L 32.5 -0.5 Z M 215.1941077002979 0.5 L 353.8882154005958 0.5 L 353.8882154005958 3.5 L 360.8882154005958 0 L 353.8882154005958 -3.5 L 353.8882154005958 -0.5 L 215.1941077002979 -0.5 Z"/><text text-anchor="middle" pointer-events="none" font-size="8px" fill="#000000" x="193.1941077002979" y="3" font-family="sans-serif">_SOURCE</text></g><g class="relationship" transform="translate(-321.23819236885095 194.7003603781907) rotate(181.65332654224653)"><path class="outline" fill="#A5ABB6" stroke="none" d="M 32.5 0.5 L 41.30214575701798 0.5 L 41.30214575701798 -0.5 L 32.5 -0.5 Z M 73.30214575701798 0.5 L 82.10429151403596 0.5 L 82.10429151403596 3.5 L 89.10429151403596 0 L 82.10429151403596 -3.5 L 82.10429151403596 -0.5 L 73.30214575701798 -0.5 Z"/><text text-anchor="middle" pointer-events="none" font-size="8px" fill="#000000" x="57.30214575701798" y="3" transform="rotate(180 57.30214575701798 0)" font-family="sans-serif">_PROP</text></g><g class="relationship" transform="translate(-4.220543093821831 197.06782195157544) rotate(358.67781979181507)"><path class="outline" fill="#A5ABB6" stroke="none" d="M 32.5 0.5 L 91.62297338929758 0.5 L 91.62297338929758 -0.5 L 32.5 -0.5 Z M 123.62297338929758 0.5 L 182.74594677859517 0.5 L 182.74594677859517 3.5 L 189.74594677859517 0 L 182.74594677859517 -3.5 L 182.74594677859517 -0.5 L 123.62297338929758 -0.5 Z"/><text text-anchor="middle" pointer-events="none" font-size="8px" fill="#000000" x="107.62297338929758" y="3" font-family="sans-serif">_PROP</text></g><g class="relationship" transform="translate(-4.220543093821831 197.06782195157544) rotate(474.6953407369544)"><path class="outline" fill="#A5ABB6" stroke="none" d="M 32.5 0.5 L 41.46508188093945 0.5 L 41.46508188093945 -0.5 L 32.5 -0.5 Z M 73.46508188093945 0.5 L 82.4301637618789 0.5 L 82.4301637618789 3.5 L 89.4301637618789 0 L 82.4301637618789 -3.5 L 82.4301637618789 -0.5 L 73.46508188093945 -0.5 Z"/><text text-anchor="middle" pointer-events="none" font-size="8px" fill="#000000" x="57.46508188093945" y="3" transform="rotate(180 57.46508188093945 0)" font-family="sans-serif">_PROP</text></g><g class="relationship" transform="translate(-4.220543093821831 197.06782195157544) rotate(539.8621775045243)"><path class="outline" fill="#A5ABB6" stroke="none" d="M 32.5 0.5 L 84.7781828604313 0.5 L 84.7781828604313 -0.5 L 32.5 -0.5 Z M 116.7781828604313 0.5 L 169.0563657208626 0.5 L 169.0563657208626 3.5 L 176.0563657208626 0 L 169.0563657208626 -3.5 L 169.0563657208626 -0.5 L 116.7781828604313 -0.5 Z"/><text text-anchor="middle" pointer-events="none" font-size="8px" fill="#000000" x="100.7781828604313" y="3" transform="rotate(180 100.7781828604313 0)" font-family="sans-serif">_PROP</text></g><g class="relationship" transform="translate(-4.220543093821831 197.06782195157544) rotate(425.54367778421044)"><path class="outline" fill="#A5ABB6" stroke="none" d="M 32.5 0.5 L 41.65510147398215 0.5 L 41.65510147398215 -0.5 L 32.5 -0.5 Z M 73.65510147398214 0.5 L 82.8102029479643 0.5 L 82.8102029479643 3.5 L 89.8102029479643 0 L 82.8102029479643 -3.5 L 82.8102029479643 -0.5 L 73.65510147398214 -0.5 Z"/><text text-anchor="middle" pointer-events="none" font-size="8px" fill="#000000" x="57.65510147398215" y="3" font-family="sans-serif">_PROP</text></g><g class="relationship" transform="translate(-9.124063142095054 442.8771068356966) rotate(312.1440769360979)"><path class="outline" fill="#A5ABB6" stroke="none" d="M 32.5 0.5 L 149.71850769498056 0.5 L 149.71850769498056 -0.5 L 32.5 -0.5 Z M 181.71850769498056 0.5 L 298.9370153899611 0.5 L 298.9370153899611 3.5 L 305.9370153899611 0 L 298.9370153899611 -3.5 L 298.9370153899611 -0.5 L 181.71850769498056 -0.5 Z"/><text text-anchor="middle" pointer-events="none" font-size="8px" fill="#000000" x="165.71850769498056" y="3" font-family="sans-serif">_PROP</text></g><g class="relationship" transform="translate(-9.124063142095054 442.8771068356966) rotate(180.21276308921193)"><path class="outline" fill="#A5ABB6" stroke="none" d="M 32.5 0.5 L 37.07352243112406 0.5 L 37.07352243112406 -0.5 L 32.5 -0.5 Z M 69.07352243112406 0.5 L 73.64704486224812 0.5 L 73.64704486224812 3.5 L 80.64704486224812 0 L 73.64704486224812 -3.5 L 73.64704486224812 -0.5 L 69.07352243112406 -0.5 Z"/><text text-anchor="middle" pointer-events="none" font-size="8px" fill="#000000" x="53.07352243112406" y="3" transform="rotate(180 53.07352243112406 0)" font-family="sans-serif">_PROP</text></g><g class="relationship" transform="translate(-9.124063142095054 442.8771068356966) rotate(230.30083805626373)"><path class="outline" fill="#A5ABB6" stroke="none" d="M 32.5 0.5 L 139.9130330032377 0.5 L 139.9130330032377 -0.5 L 32.5 -0.5 Z M 171.9130330032377 0.5 L 279.3260660064754 0.5 L 279.3260660064754 3.5 L 286.3260660064754 0 L 279.3260660064754 -3.5 L 279.3260660064754 -0.5 L 171.9130330032377 -0.5 Z"/><text text-anchor="middle" pointer-events="none" font-size="8px" fill="#000000" x="155.9130330032377" y="3" transform="rotate(180 155.9130330032377 0)" font-family="sans-serif">_PROP</text></g><g class="relationship" transform="translate(-8.369023969488438 668.8441409636023) rotate(361.5664812475269)"><path class="outline" fill="#A5ABB6" stroke="none" d="M 32.5 0.5 L 35.04311300912695 0.5 L 35.04311300912695 -0.5 L 32.5 -0.5 Z M 67.04311300912696 0.5 L 69.5862260182539 0.5 L 69.5862260182539 3.5 L 76.5862260182539 0 L 69.5862260182539 -3.5 L 69.5862260182539 -0.5 L 67.04311300912696 -0.5 Z"/><text text-anchor="middle" pointer-events="none" font-size="8px" fill="#000000" x="51.04311300912695" y="3" font-family="sans-serif">_PROP</text></g><g class="relationship" transform="translate(-8.369023969488438 668.8441409636023) rotate(398.1531444084428)"><path class="outline" fill="#A5ABB6" stroke="none" d="M 32.5 0.5 L 52.38852202059168 0.5 L 52.38852202059168 -0.5 L 32.5 -0.5 Z M 84.38852202059168 0.5 L 104.27704404118336 0.5 L 104.27704404118336 3.5 L 111.27704404118336 0 L 104.27704404118336 -3.5 L 104.27704404118336 -0.5 L 84.38852202059168 -0.5 Z"/><text text-anchor="middle" pointer-events="none" font-size="8px" fill="#000000" x="68.38852202059168" y="3" font-family="sans-serif">_PROP</text></g><g class="relationship" transform="translate(-8.369023969488438 668.8441409636023) rotate(323.53864842059113)"><path class="outline" fill="#A5ABB6" stroke="none" d="M 32.5 0.5 L 47.805486189323716 0.5 L 47.805486189323716 -0.5 L 32.5 -0.5 Z M 79.80548618932372 0.5 L 95.11097237864743 0.5 L 95.11097237864743 3.5 L 102.11097237864743 0 L 95.11097237864743 -3.5 L 95.11097237864743 -0.5 L 79.80548618932372 -0.5 Z"/><text text-anchor="middle" pointer-events="none" font-size="8px" fill="#000000" x="63.805486189323716" y="3" font-family="sans-serif">_PROP</text></g><g class="relationship" transform="translate(-5.020918254751564 870.0426944206476) rotate(538.4471883678034)"><path class="outline" fill="#A5ABB6" stroke="none" d="M 31.26317983184346,-8.894581878976458 L 31.52199887694598,-7.92865605268739 A 143.94660578949063 143.94660578949063 0 0 1 53.58982747959619,-12.029990789292697 L 53.48431408891752,-13.024408671466716 A 144.94660578949063 144.94660578949063 0 0 0 31.26317983184346,-8.894581878976458 Z M 80.53631892319903,-13.355812835365015 L 80.4551980378494,-12.359108565302876 A 143.94660578949063 143.94660578949063 0 0 1 102.61687665239502,-8.799613257928115 L 101.91164109924658,-5.883684106769704 L 109.53825059728939,-7.6400518257748145 L 103.55719072325961,-12.687518792805996 L 102.85195517011117,-9.771589641647584 A 144.94660578949063 144.94660578949063 0 0 0 80.53631892319903,-13.355812835365015"/><text text-anchor="middle" pointer-events="none" font-size="8px" fill="#000000" x="67.00869245147567" y="-10.322679795104818" transform="rotate(180 67.00869245147567 -13.322679795104818)" font-family="sans-serif">LIKES</text></g><g class="relationship" transform="translate(-146.09657536900943 873.8670174898429) rotate(358.4471883678034)"><path class="outline" fill="#A5ABB6" stroke="none" d="M 31.26317983184346,-8.894581878976458 L 31.52199887694598,-7.92865605268739 A 143.94660578949063 143.94660578949063 0 0 1 53.58982747959619,-12.029990789292697 L 53.48431408891752,-13.024408671466716 A 144.94660578949063 144.94660578949063 0 0 0 31.26317983184346,-8.894581878976458 Z M 80.53631892319903,-13.355812835365015 L 80.4551980378494,-12.359108565302876 A 143.94660578949063 143.94660578949063 0 0 1 102.61687665239502,-8.799613257928115 L 101.91164109924658,-5.883684106769704 L 109.53825059728939,-7.6400518257748145 L 103.55719072325961,-12.687518792805996 L 102.85195517011117,-9.771589641647584 A 144.94660578949063 144.94660578949063 0 0 0 80.53631892319903,-13.355812835365015"/><text text-anchor="middle" pointer-events="none" font-size="8px" fill="#000000" x="67.00869245147567" y="-10.322679795104818" font-family="sans-serif">LIKES</text></g><g class="relationship" transform="translate(-155.80326559848305 671.7140885548237) rotate(358.8848240559297)"><path class="outline" fill="#A5ABB6" stroke="none" d="M 31.26317983184346,8.894581878976458 L 31.52199887694598,7.92865605268739 A 156.48065743518015 156.48065743518015 0 0 0 49.824435527454796,11.678161374914282 L 49.682579415346666,12.668048663173693 A 157.48065743518015 157.48065743518015 0 0 1 31.26317983184346,8.894581878976458 Z M 90.69353475495072,13.1498224553456 L 90.57497186698905,12.156875910158902 A 156.48065743518015 156.48065743518015 0 0 0 108.96043968709303,8.838359593608288 L 108.25227037566755,5.923141552645458 L 115.88064333457721,7.671834207109319 L 109.90466543566033,12.72531698155873 L 109.19649612423486,9.8100989405959 A 157.48065743518015 157.48065743518015 0 0 1 90.69353475495072,13.1498224553456"/><text text-anchor="middle" pointer-events="none" font-size="8px" fill="#000000" x="70.17817937989062" y="16.749774425504683" font-family="sans-serif">_TARGET</text></g><g class="relationship" transform="translate(-155.80326559848305 671.7140885548237) rotate(358.8848240559297)"><path class="outline" fill="#A5ABB6" stroke="none" d="M 31.26317983184346,-8.894581878976458 L 31.52199887694598,-7.92865605268739 A 156.48065743518015 156.48065743518015 0 0 1 48.345369826181475,-11.458986808126014 L 48.1940616467986,-12.447473446807521 A 157.48065743518015 157.48065743518015 0 0 0 31.26317983184346,-8.894581878976458 Z M 92.18682341595138,-12.964275835099443 L 92.05877816561379,-11.972507508389043 A 156.48065743518015 156.48065743518015 0 0 1 108.96043968709303,-8.838359593608288 L 108.25227037566755,-5.923141552645458 L 115.88064333457721,-7.671834207109319 L 109.90466543566033,-12.72531698155873 L 109.19649612423486,-9.8100989405959 A 157.48065743518015 157.48065743518015 0 0 0 92.18682341595138,-12.964275835099443"/><text text-anchor="middle" pointer-events="none" font-size="8px" fill="#000000" x="70.17817937989057" y="-10.749774425504683" font-family="sans-serif">_SOURCE</text></g><g class="relationship" transform="translate(-53.12517342442611 80.3729066663742) rotate(294.43240727641256)"><path class="outline" fill="#A5ABB6" stroke="none" d="M 32.5 0.5 L 38.81397758108691 0.5 L 38.81397758108691 -0.5 L 32.5 -0.5 Z M 79.8139775810869 0.5 L 86.12795516217382 0.5 L 86.12795516217382 3.5 L 93.12795516217382 0 L 86.12795516217382 -3.5 L 86.12795516217382 -0.5 L 79.8139775810869 -0.5 Z"/><text text-anchor="middle" pointer-events="none" font-size="8px" fill="#000000" x="59.31397758108691" y="3" font-family="sans-serif">_TARGET</text></g><g class="relationship" transform="translate(-53.12517342442611 80.3729066663742) rotate(427.2623646688062)"><path class="outline" fill="#A5ABB6" stroke="none" d="M 32.5 0.5 L 37.764061917476795 0.5 L 37.764061917476795 -0.5 L 32.5 -0.5 Z M 81.7640619174768 0.5 L 87.02812383495359 0.5 L 87.02812383495359 3.5 L 94.02812383495359 0 L 87.02812383495359 -3.5 L 87.02812383495359 -0.5 L 81.7640619174768 -0.5 Z"/><text text-anchor="middle" pointer-events="none" font-size="8px" fill="#000000" x="59.764061917476795" y="3" font-family="sans-serif">_SOURCE</text></g><g class="relationship" transform="translate(43.50632222069075 79.42068029039044) rotate(248.50448384523878)"><path class="outline" fill="#A5ABB6" stroke="none" d="M 32.5 0.5 L 36.95232686138797 0.5 L 36.95232686138797 -0.5 L 32.5 -0.5 Z M 77.95232686138797 0.5 L 82.40465372277593 0.5 L 82.40465372277593 3.5 L 89.40465372277593 0 L 82.40465372277593 -3.5 L 82.40465372277593 -0.5 L 77.95232686138797 -0.5 Z"/><text text-anchor="middle" pointer-events="none" font-size="8px" fill="#000000" x="57.45232686138797" y="3" transform="rotate(180 57.45232686138797 0)" font-family="sans-serif">_TARGET</text></g><g class="relationship" transform="translate(43.50632222069075 79.42068029039044) rotate(472.0813156079208)"><path class="outline" fill="#A5ABB6" stroke="none" d="M 32.5 0.5 L 37.97972828745519 0.5 L 37.97972828745519 -0.5 L 32.5 -0.5 Z M 81.97972828745519 0.5 L 87.45945657491038 0.5 L 87.45945657491038 3.5 L 94.45945657491038 0 L 87.45945657491038 -3.5 L 87.45945657491038 -0.5 L 81.97972828745519 -0.5 Z"/><text text-anchor="middle" pointer-events="none" font-size="8px" fill="#000000" x="59.97972828745519" y="3" transform="rotate(180 59.97972828745519 0)" font-family="sans-serif">_SOURCE</text></g></g><g class="layer nodes"><g class="node" transform="translate(-1.1630065939049246,-34.005047225563544)"><circle class="outline" cx="0" cy="0" r="32.5" fill="#FFC454" stroke="#d7a013" stroke-width="2px"/><text text-anchor="middle" pointer-events="none" font-family="sans-serif" dy="2.03125" font-size="32.5" fill="#604A0E"/><text text-anchor="middle" pointer-events="none" y="5" font-size="10px" fill="#604A0E" font-family="sans-serif"> _Schema</text></g><g class="node" transform="translate(217.9662310891832,191.93964121524314)"><circle class="outline" cx="0" cy="0" r="32.5" fill="#4C8EDA" stroke="#2870c2" stroke-width="2px"/><text text-anchor="middle" pointer-events="none" font-family="sans-serif" dy="2.03125" font-size="32.5" fill="#FFFFFF"/><text text-anchor="middle" pointer-events="none" y="5" font-size="10px" fill="#FFFFFF" font-family="sans-serif"> _techname</text></g><g class="node" transform="translate(-212.77630543845225,197.56949469772968)"><circle class="outline" cx="0" cy="0" r="32.5" fill="#4C8EDA" stroke="#2870c2" stroke-width="2px"/><text text-anchor="middle" pointer-events="none" font-family="sans-serif" dy="2.03125" font-size="32.5" fill="#FFFFFF"/><text text-anchor="middle" pointer-events="none" y="5" font-size="10px" fill="#FFFFFF" font-family="sans-serif"> description</text></g><g class="node" transform="translate(-321.23819236885095,194.7003603781907)"><circle class="outline" cx="0" cy="0" r="32.5" fill="#DA7194" stroke="#cc3c6c" stroke-width="2px"/><text text-anchor="middle" pointer-events="none" font-family="sans-serif" dy="2.03125" font-size="32.5" fill="#FFFFFF"/><text text-anchor="middle" pointer-events="none" y="5" font-size="10px" fill="#FFFFFF" font-family="sans-serif"> _PROP</text></g><g class="node" transform="translate(-4.220543093821831,197.06782195157544)"><circle class="outline" cx="0" cy="0" r="32.5" fill="#FFC454" stroke="#d7a013" stroke-width="2px"/><text text-anchor="middle" pointer-events="none" font-family="sans-serif" dy="2.03125" font-size="32.5" fill="#604A0E"/><text text-anchor="middle" pointer-events="none" y="5" font-size="10px" fill="#604A0E" font-family="sans-serif"> _Relation</text></g><g class="node" transform="translate(-442.7918593788337,191.19183489632917)"><circle class="outline" cx="0" cy="0" r="32.5" fill="#4C8EDA" stroke="#2870c2" stroke-width="2px"/><text text-anchor="middle" pointer-events="none" font-family="sans-serif" dy="2.03125" font-size="32.5" fill="#FFFFFF"/><text text-anchor="middle" pointer-events="none" y="5" font-size="10px" fill="#FFFFFF" font-family="sans-serif"> _arity</text></g><g class="node" transform="translate(-9.124063142095054,442.8771068356966)"><circle class="outline" cx="0" cy="0" r="32.5" fill="#FFC454" stroke="#d7a013" stroke-width="2px"/><text text-anchor="middle" pointer-events="none" font-family="sans-serif" dy="2.03125" font-size="32.5" fill="#604A0E"/><text text-anchor="middle" pointer-events="none" y="5" font-size="10px" fill="#604A0E" font-family="sans-serif"> _Property</text></g><g class="node" transform="translate(-8.369023969488438,668.8441409636023)"><circle class="outline" cx="0" cy="0" r="32.5" fill="#FFC454" stroke="#d7a013" stroke-width="2px"/><text text-anchor="middle" pointer-events="none" font-family="sans-serif" dy="2.03125" font-size="32.5" fill="#604A0E"/><text text-anchor="middle" pointer-events="none" y="5" font-size="10px" fill="#604A0E" font-family="sans-serif"> Person</text></g><g class="node" transform="translate(-5.020918254751564,870.0426944206476)"><circle class="outline" cx="0" cy="0" r="32.5" fill="#569480" stroke="#447666" stroke-width="2px"/><text text-anchor="middle" pointer-events="none" font-family="sans-serif" dy="2.03125" font-size="32.5" fill="#FFFFFF"/><text text-anchor="middle" pointer-events="none" y="5" font-size="10px" fill="#FFFFFF" font-family="sans-serif"> Bob</text></g><g class="node" transform="translate(-146.09657536900943,873.8670174898429)"><circle class="outline" cx="0" cy="0" r="32.5" fill="#569480" stroke="#447666" stroke-width="2px"/><text text-anchor="middle" pointer-events="none" font-family="sans-serif" dy="2.03125" font-size="32.5" fill="#FFFFFF"/><text text-anchor="middle" pointer-events="none" y="5" font-size="10px" fill="#FFFFFF" font-family="sans-serif"> Alice Alison</text></g><g class="node" transform="translate(100.67643418036849,671.8262147040343)"><circle class="outline" cx="0" cy="0" r="32.5" fill="#4C8EDA" stroke="#2870c2" stroke-width="2px"/><text text-anchor="middle" pointer-events="none" font-family="sans-serif" dy="2.03125" font-size="32.5" fill="#FFFFFF"/><text text-anchor="middle" pointer-events="none" y="5" font-size="10px" fill="#FFFFFF" font-family="sans-serif"> lastname</text></g><g class="node" transform="translate(-155.80326559848305,671.7140885548237)"><circle class="outline" cx="0" cy="0" r="32.5" fill="#DA7194" stroke="#cc3c6c" stroke-width="2px"/><text text-anchor="middle" pointer-events="none" font-family="sans-serif" dy="2.03125" font-size="32.5" fill="#FFFFFF"/><text text-anchor="middle" pointer-events="none" y="5" font-size="10px" fill="#FFFFFF" font-family="sans-serif"> LIKES</text></g><g class="node" transform="translate(99.89291544271289,588.8474762866682)"><circle class="outline" cx="0" cy="0" r="32.5" fill="#4C8EDA" stroke="#2870c2" stroke-width="2px"/><text text-anchor="middle" pointer-events="none" font-family="sans-serif" dy="2.03125" font-size="32.5" fill="#FFFFFF"/><text text-anchor="middle" pointer-events="none" y="5" font-size="10px" fill="#FFFFFF" font-family="sans-serif"> firstname</text></g><g class="node" transform="translate(-121.68247433063493,-32.31030172390143)"><circle class="outline" cx="0" cy="0" r="32.5" fill="#4C8EDA" stroke="#2870c2" stroke-width="2px"/><text text-anchor="middle" pointer-events="none" font-family="sans-serif" dy="2.03125" font-size="32.5" fill="#FFFFFF"/><text text-anchor="middle" pointer-events="none" y="5" font-size="10px" fill="#FFFFFF" font-family="sans-serif"> _schemana…</text></g><g class="node" transform="translate(-53.12517342442611,80.3729066663742)"><circle class="outline" cx="0" cy="0" r="32.5" fill="#DA7194" stroke="#cc3c6c" stroke-width="2px"/><text text-anchor="middle" pointer-events="none" font-family="sans-serif" dy="2.03125" font-size="32.5" fill="#FFFFFF"/><text text-anchor="middle" pointer-events="none" y="5" font-size="10px" fill="#FFFFFF" font-family="sans-serif"> _TARGET</text></g><g class="node" transform="translate(46.415812372982415,308.40400317857666)"><circle class="outline" cx="0" cy="0" r="32.5" fill="#4C8EDA" stroke="#2870c2" stroke-width="2px"/><text text-anchor="middle" pointer-events="none" font-family="sans-serif" dy="2.03125" font-size="32.5" fill="#FFFFFF"/><text text-anchor="middle" pointer-events="none" y="5" font-size="10px" fill="#FFFFFF" font-family="sans-serif"> _targetarity</text></g><g class="node" transform="translate(43.50632222069075,79.42068029039044)"><circle class="outline" cx="0" cy="0" r="32.5" fill="#DA7194" stroke="#cc3c6c" stroke-width="2px"/><text text-anchor="middle" pointer-events="none" font-family="sans-serif" dy="2.03125" font-size="32.5" fill="#FFFFFF"/><text text-anchor="middle" pointer-events="none" y="5" font-size="10px" fill="#FFFFFF" font-family="sans-serif"> _SOURCE</text></g><g class="node" transform="translate(-55.16213553566054,307.84651572654377)"><circle class="outline" cx="0" cy="0" r="32.5" fill="#4C8EDA" stroke="#2870c2" stroke-width="2px"/><text text-anchor="middle" pointer-events="none" font-family="sans-serif" dy="2.03125" font-size="32.5" fill="#FFFFFF"/><text text-anchor="middle" pointer-events="none" y="5" font-size="10px" fill="#FFFFFF" font-family="sans-serif"> _sourcearity</text></g><g class="node" transform="translate(-122.27032788682402,442.4569457055416)"><circle class="outline" cx="0" cy="0" r="32.5" fill="#4C8EDA" stroke="#2870c2" stroke-width="2px"/><text text-anchor="middle" pointer-events="none" font-family="sans-serif" dy="2.03125" font-size="32.5" fill="#FFFFFF"/><text text-anchor="middle" pointer-events="none" y="5" font-size="10px" fill="#FFFFFF" font-family="sans-serif"> _fieldtype</text></g><g class="node" transform="translate(104.69183098410817,757.6646423716791)"><circle class="outline" cx="0" cy="0" r="32.5" fill="#4C8EDA" stroke="#2870c2" stroke-width="2px"/><text text-anchor="middle" pointer-events="none" font-family="sans-serif" dy="2.03125" font-size="32.5" fill="#FFFFFF"/><text text-anchor="middle" pointer-events="none" y="5" font-size="10px" fill="#FFFFFF" font-family="sans-serif"> name</text></g></g></svg>