<svg xmlns="http://www.w3.org/2000/svg" width="943.9266357421875" height="1081.4234619140625" viewBox="-610.535888671875 -247.68960571289062 943.9266357421875 1081.4234619140625"><title>Neo4j Graph Visualization</title><desc>Created using Neo4j (http://www.neo4j.com/)</desc><g class="layer relationships"><g class="relationship" transform="translate(0.7764216349983428 -203.68960377031644) rotate(505.1138265918995)"><path class="outline" fill="#A5ABB6" stroke="none" d="M 40 0.5 L 211.51586893315445 0.5 L 211.51586893315445 -0.5 L 40 -0.5 Z M 255.51586893315445 0.5 L 427.0317378663089 0.5 L 427.0317378663089 3.5 L 434.0317378663089 0 L 427.0317378663089 -3.5 L 427.0317378663089 -0.5 L 255.51586893315445 -0.5 Z"/><text text-anchor="middle" pointer-events="none" font-size="8px" fill="#000000" x="233.51586893315445" y="3" transform="rotate(180 233.51586893315445 0)" font-family="sans-serif">_SOURCE</text></g><g class="relationship" transform="translate(0.7764216349983428 -203.68960377031644) rotate(403.5610456569542)"><path class="outline" fill="#A5ABB6" stroke="none" d="M 40 0.5 L 179.64312972895954 0.5 L 179.64312972895954 -0.5 L 40 -0.5 Z M 211.64312972895954 0.5 L 351.2862594579191 0.5 L 351.2862594579191 3.5 L 358.2862594579191 0 L 351.2862594579191 -3.5 L 351.2862594579191 -0.5 L 211.64312972895954 -0.5 Z"/><text text-anchor="middle" pointer-events="none" font-size="8px" fill="#000000" x="195.64312972895954" y="3" font-family="sans-serif">_PROP</text></g><g class="relationship" transform="translate(0.7764216349983428 -203.68960377031644) rotate(539.9371511531424)"><path class="outline" fill="#A5ABB6" stroke="none" d="M 40 0.5 L 74.48127363528239 0.5 L 74.48127363528239 -0.5 L 40 -0.5 Z M 106.48127363528239 0.5 L 140.96254727056478 0.5 L 140.96254727056478 3.5 L 147.96254727056478 0 L 140.96254727056478 -3.5 L 140.96254727056478 -0.5 L 106.48127363528239 -0.5 Z"/><text text-anchor="middle" pointer-events="none" font-size="8px" fill="#000000" x="90.48127363528239" y="3" transform="rotate(180 90.48127363528239 0)" font-family="sans-serif">_PROP</text></g><g class="relationship" transform="translate(0.7764216349983428 -203.68960377031644) rotate(492.12417331268716)"><path class="outline" fill="#A5ABB6" stroke="none" d="M 40 0.5 L 164.5333951586969 0.5 L 164.5333951586969 -0.5 L 40 -0.5 Z M 196.5333951586969 0.5 L 321.0667903173938 0.5 L 321.0667903173938 3.5 L 328.0667903173938 0 L 321.0667903173938 -3.5 L 321.0667903173938 -0.5 L 196.5333951586969 -0.5 Z"/><text text-anchor="middle" pointer-events="none" font-size="8px" fill="#000000" x="180.5333951586969" y="3" transform="rotate(180 180.5333951586969 0)" font-family="sans-serif">_PROP</text></g><g class="relationship" transform="translate(-388.0670356344637 67.43187129812033) rotate(394.94907917841306)"><path class="outline" fill="#A5ABB6" stroke="none" d="M 40 0.5 L 210.71199319910812 0.5 L 210.71199319910812 -0.5 L 40 -0.5 Z M 251.71199319910812 0.5 L 422.42398639821624 0.5 L 422.42398639821624 3.5 L 429.42398639821624 0 L 422.42398639821624 -3.5 L 422.42398639821624 -0.5 L 251.71199319910812 -0.5 Z"/><text text-anchor="middle" pointer-events="none" font-size="8px" fill="#000000" x="231.21199319910812" y="3" font-family="sans-serif">_TARGET</text></g><g class="relationship" transform="translate(-388.0670356344637 67.43187129812033) rotate(180.72055694503507)"><path class="outline" fill="#A5ABB6" stroke="none" d="M 40 0.5 L 69.74149073143164 0.5 L 69.74149073143164 -0.5 L 40 -0.5 Z M 101.74149073143164 0.5 L 131.48298146286328 0.5 L 131.48298146286328 3.5 L 138.48298146286328 0 L 131.48298146286328 -3.5 L 131.48298146286328 -0.5 L 101.74149073143164 -0.5 Z"/><text text-anchor="middle" pointer-events="none" font-size="8px" fill="#000000" x="85.74149073143164" y="3" transform="rotate(180 85.74149073143164 0)" font-family="sans-serif">_PROP</text></g><g class="relationship" transform="translate(-0.21552758139945638 70.33415632419448) rotate(472.69571835148855)"><path class="outline" fill="#A5ABB6" stroke="none" d="M 40 0.5 L 49.62384734267489 0.5 L 49.62384734267489 -0.5 L 40 -0.5 Z M 81.62384734267489 0.5 L 91.24769468534979 0.5 L 91.24769468534979 3.5 L 98.24769468534979 0 L 91.24769468534979 -3.5 L 91.24769468534979 -0.5 L 81.62384734267489 -0.5 Z"/><text text-anchor="middle" pointer-events="none" font-size="8px" fill="#000000" x="65.62384734267489" y="3" transform="rotate(180 65.62384734267489 0)" font-family="sans-serif">_PROP</text></g><g class="relationship" transform="translate(-0.21552758139945638 70.33415632419448) rotate(240.8401747410901)"><path class="outline" fill="#A5ABB6" stroke="none" d="M 40 0.5 L 43.66065679100262 0.5 L 43.66065679100262 -0.5 L 40 -0.5 Z M 87.66065679100262 0.5 L 91.32131358200525 0.5 L 91.32131358200525 3.5 L 98.32131358200525 0 L 91.32131358200525 -3.5 L 91.32131358200525 -0.5 L 87.66065679100262 -0.5 Z"/><text text-anchor="middle" pointer-events="none" font-size="8px" fill="#000000" x="65.66065679100262" y="3" transform="rotate(180 65.66065679100262 0)" font-family="sans-serif">_SOURCE</text></g><g class="relationship" transform="translate(-0.21552758139945638 70.33415632419448) rotate(301.05759372167483)"><path class="outline" fill="#A5ABB6" stroke="none" d="M 40 0.5 L 45.77625489675907 0.5 L 45.77625489675907 -0.5 L 40 -0.5 Z M 89.77625489675907 0.5 L 95.55250979351814 0.5 L 95.55250979351814 3.5 L 102.55250979351814 0 L 95.55250979351814 -3.5 L 95.55250979351814 -0.5 L 89.77625489675907 -0.5 Z"/><text text-anchor="middle" pointer-events="none" font-size="8px" fill="#000000" x="67.77625489675907" y="3" font-family="sans-serif">_SOURCE</text></g><g class="relationship" transform="translate(-0.21552758139945638 70.33415632419448) rotate(360.0882501800509)"><path class="outline" fill="#A5ABB6" stroke="none" d="M 40 0.5 L 125.30333415177631 0.5 L 125.30333415177631 -0.5 L 40 -0.5 Z M 157.3033341517763 0.5 L 242.60666830355262 0.5 L 242.60666830355262 3.5 L 249.60666830355262 0 L 242.60666830355262 -3.5 L 242.60666830355262 -0.5 L 157.3033341517763 -0.5 Z"/><text text-anchor="middle" pointer-events="none" font-size="8px" fill="#000000" x="141.3033341517763" y="3" font-family="sans-serif">_PROP</text></g><g class="relationship" transform="translate(-0.21552758139945638 70.33415632419448) rotate(423.4640845154868)"><path class="outline" fill="#A5ABB6" stroke="none" d="M 40 0.5 L 53.200976808784716 0.5 L 53.200976808784716 -0.5 L 40 -0.5 Z M 85.20097680878472 0.5 L 98.40195361756943 0.5 L 98.40195361756943 3.5 L 105.40195361756943 0 L 98.40195361756943 -3.5 L 98.40195361756943 -0.5 L 85.20097680878472 -0.5 Z"/><text text-anchor="middle" pointer-events="none" font-size="8px" fill="#000000" x="69.20097680878472" y="3" font-family="sans-serif">_PROP</text></g><g class="relationship" transform="translate(-0.21552758139945638 70.33415632419448) rotate(180.24029384762628)"><path class="outline" fill="#A5ABB6" stroke="none" d="M 40 0.5 L 103.44359279779461 0.5 L 103.44359279779461 -0.5 L 40 -0.5 Z M 135.44359279779462 0.5 L 198.88718559558922 0.5 L 198.88718559558922 3.5 L 205.88718559558922 0 L 198.88718559558922 -3.5 L 198.88718559558922 -0.5 L 135.44359279779462 -0.5 Z"/><text text-anchor="middle" pointer-events="none" font-size="8px" fill="#000000" x="119.44359279779461" y="3" transform="rotate(180 119.44359279779461 0)" font-family="sans-serif">_PROP</text></g><g class="relationship" transform="translate(-3.2982767862466744 336.3405569525545) rotate(227.72151916704746)"><path class="outline" fill="#A5ABB6" stroke="none" d="M 40 0.5 L 160.95916384809 0.5 L 160.95916384809 -0.5 L 40 -0.5 Z M 192.95916384809 0.5 L 313.91832769618 0.5 L 313.91832769618 3.5 L 320.91832769618 0 L 313.91832769618 -3.5 L 313.91832769618 -0.5 L 192.95916384809 -0.5 Z"/><text text-anchor="middle" pointer-events="none" font-size="8px" fill="#000000" x="176.95916384809" y="3" transform="rotate(180 176.95916384809 0)" font-family="sans-serif">_PROP</text></g><g class="relationship" transform="translate(-3.2982767862466744 336.3405569525545) rotate(181.22984998788053)"><path class="outline" fill="#A5ABB6" stroke="none" d="M 40 0.5 L 69.21631350975062 0.5 L 69.21631350975062 -0.5 L 40 -0.5 Z M 101.21631350975062 0.5 L 130.43262701950124 0.5 L 130.43262701950124 3.5 L 137.43262701950124 0 L 130.43262701950124 -3.5 L 130.43262701950124 -0.5 L 101.21631350975062 -0.5 Z"/><text text-anchor="middle" pointer-events="none" font-size="8px" fill="#000000" x="85.21631350975062" y="3" transform="rotate(180 85.21631350975062 0)" font-family="sans-serif">_PROP</text></g><g class="relationship" transform="translate(-3.2982767862466744 336.3405569525545) rotate(317.78216246875667)"><path class="outline" fill="#A5ABB6" stroke="none" d="M 40 0.5 L 178.10388668808994 0.5 L 178.10388668808994 -0.5 L 40 -0.5 Z M 210.10388668808994 0.5 L 348.2077733761799 0.5 L 348.2077733761799 3.5 L 355.2077733761799 0 L 348.2077733761799 -3.5 L 348.2077733761799 -0.5 L 210.10388668808994 -0.5 Z"/><text text-anchor="middle" pointer-events="none" font-size="8px" fill="#000000" x="194.10388668808994" y="3" font-family="sans-serif">_PROP</text></g><g class="relationship" transform="translate(-7.027888530726216 542.0434396715548) rotate(539.9091260657337)"><path class="outline" fill="#A5ABB6" stroke="none" d="M 38.50762352901147,-10.835724717245364 L 38.766442574113995,-9.869798890956295 A 171.8518300059408 171.8518300059408 0 0 1 59.62317108435059,-14.094305809470796 L 59.48571663867954,-15.084813898970964 A 172.8518300059408 172.8518300059408 0 0 0 38.50762352901147,-10.835724717245364 Z M 103.49131845120559,-15.535672840536535 L 103.3741872103322,-14.542556395998702 A 171.8518300059408 171.8518300059408 0 0 1 124.3130927148854,-10.746266216667749 L 123.59617063849971,-7.833188336419636 L 131.22976144819526,-9.55896101847583 L 125.26898881673297,-14.630370056998565 L 124.55206674034729,-11.717292176750451 A 172.8518300059408 172.8518300059408 0 0 0 103.49131845120559,-15.535672840536535"/><text text-anchor="middle" pointer-events="none" font-size="8px" fill="#000000" x="81.47923288286653" y="-13.216462820261569" transform="rotate(180 81.47923288286653 -16.21646282026157)" font-family="sans-serif">_SOURCE</text></g><g class="relationship" transform="translate(-7.027888530726216 542.0434396715548) rotate(327.8807046745319)"><path class="outline" fill="#A5ABB6" stroke="none" d="M 40 0.5 L 73.9622862229604 0.5 L 73.9622862229604 -0.5 L 40 -0.5 Z M 105.9622862229604 0.5 L 139.9245724459208 0.5 L 139.9245724459208 3.5 L 146.9245724459208 0 L 139.9245724459208 -3.5 L 139.9245724459208 -0.5 L 105.9622862229604 -0.5 Z"/><text text-anchor="middle" pointer-events="none" font-size="8px" fill="#000000" x="89.9622862229604" y="3" font-family="sans-serif">_PROP</text></g><g class="relationship" transform="translate(-7.027888530726216 542.0434396715548) rotate(359.6837117075031)"><path class="outline" fill="#A5ABB6" stroke="none" d="M 40 0.5 L 58.3827798847107 0.5 L 58.3827798847107 -0.5 L 40 -0.5 Z M 90.3827798847107 0.5 L 108.7655597694214 0.5 L 108.7655597694214 3.5 L 115.7655597694214 0 L 108.7655597694214 -3.5 L 108.7655597694214 -0.5 L 90.3827798847107 -0.5 Z"/><text text-anchor="middle" pointer-events="none" font-size="8px" fill="#000000" x="74.3827798847107" y="3" font-family="sans-serif">_PROP</text></g><g class="relationship" transform="translate(-7.027888530726216 542.0434396715548) rotate(394.2956266814446)"><path class="outline" fill="#A5ABB6" stroke="none" d="M 40 0.5 L 72.4234851235395 0.5 L 72.4234851235395 -0.5 L 40 -0.5 Z M 104.4234851235395 0.5 L 136.846970247079 0.5 L 136.846970247079 3.5 L 143.846970247079 0 L 136.846970247079 -3.5 L 136.846970247079 -0.5 L 104.4234851235395 -0.5 Z"/><text text-anchor="middle" pointer-events="none" font-size="8px" fill="#000000" x="88.4234851235395" y="3" font-family="sans-serif">_PROP</text></g><g class="relationship" transform="translate(-177.09847447125622 542.3131802412445) rotate(359.90912606573374)"><path class="outline" fill="#A5ABB6" stroke="none" d="M 38.50762352901147,-10.835724717245364 L 38.766442574113995,-9.869798890956295 A 171.8518300059408 171.8518300059408 0 0 1 61.10549886168482,-14.293440149089207 L 60.97667003133183,-15.285106994592212 A 172.8518300059408 172.8518300059408 0 0 0 38.50762352901147,-10.835724717245364 Z M 101.99657426569726,-15.705376002274818 L 101.88809057102259,-14.711277773733144 A 171.8518300059408 171.8518300059408 0 0 1 124.3130927148854,-10.746266216667749 L 123.59617063849971,-7.833188336419636 L 131.22976144819526,-9.55896101847583 L 125.26898881673297,-14.630370056998565 L 124.55206674034729,-11.717292176750451 A 172.8518300059408 172.8518300059408 0 0 0 101.99657426569726,-15.705376002274818"/><text text-anchor="middle" pointer-events="none" font-size="8px" fill="#000000" x="81.47923288286653" y="-13.216462820261569" font-family="sans-serif">_TARGET</text></g><g class="relationship" transform="translate(-10.561603958821706 788.5612826178217) rotate(539.5981677384757)"><path class="outline" fill="#A5ABB6" stroke="none" d="M 38.50762352901147,-10.835724717245364 L 38.766442574113995,-9.869798890956295 A 166.1858556518689 166.1858556518689 0 0 1 66.60944830930335,-14.838698359520237 L 66.51817063302535,-15.83452383911657 A 167.1858556518689 167.1858556518689 0 0 0 38.50762352901147,-10.835724717245364 Z M 93.56809783985538,-16.11623810672873 L 93.49757996769202,-15.118727590641043 A 166.1858556518689 166.1858556518689 0 0 1 121.43803344358795,-10.730790733782579 L 120.722096586425,-7.817470563160128 L 128.35510331790084,-9.545824762172755 L 122.39261591980524,-14.615217627945846 L 121.67667906264228,-11.701897457323396 A 167.1858556518689 167.1858556518689 0 0 0 93.56809783985538,-16.11623810672873"/><text text-anchor="middle" pointer-events="none" font-size="8px" fill="#000000" x="80.04263407861984" y="-13.02340563547051" transform="rotate(180 80.04263407861984 -16.02340563547051)" font-family="sans-serif">LIKES</text></g><g class="relationship" transform="translate(-177.75686427422508 789.7338916944404) rotate(359.5981677384757)"><path class="outline" fill="#A5ABB6" stroke="none" d="M 38.50762352901147,-10.835724717245364 L 38.766442574113995,-9.869798890956295 A 166.1858556518689 166.1858556518689 0 0 1 66.60944830930335,-14.838698359520237 L 66.51817063302535,-15.83452383911657 A 167.1858556518689 167.1858556518689 0 0 0 38.50762352901147,-10.835724717245364 Z M 93.56809783985538,-16.11623810672873 L 93.49757996769202,-15.118727590641043 A 166.1858556518689 166.1858556518689 0 0 1 121.43803344358795,-10.730790733782579 L 120.722096586425,-7.817470563160128 L 128.35510331790084,-9.545824762172755 L 122.39261591980524,-14.615217627945846 L 121.67667906264228,-11.701897457323396 A 167.1858556518689 167.1858556518689 0 0 0 93.56809783985538,-16.11623810672873"/><text text-anchor="middle" pointer-events="none" font-size="8px" fill="#000000" x="80.04263407861984" y="-13.02340563547051" font-family="sans-serif">LIKES</text></g><g class="relationship" transform="translate(-67.61223662571014 -50.45685907450131) rotate(294.0514824625435)"><path class="outline" fill="#A5ABB6" stroke="none" d="M 40 0.5 L 59.90065945168851 0.5 L 59.90065945168851 -0.5 L 40 -0.5 Z M 100.90065945168851 0.5 L 120.80131890337702 0.5 L 120.80131890337702 3.5 L 127.80131890337702 0 L 120.80131890337702 -3.5 L 120.80131890337702 -0.5 L 100.90065945168851 -0.5 Z"/><text text-anchor="middle" pointer-events="none" font-size="8px" fill="#000000" x="80.40065945168851" y="3" font-family="sans-serif">_TARGET</text></g><g class="relationship" transform="translate(73.32723227661212 -51.783330224202544) rotate(244.47074408321953)"><path class="outline" fill="#A5ABB6" stroke="none" d="M 40 0.5 L 60.17115905614891 0.5 L 60.17115905614891 -0.5 L 40 -0.5 Z M 101.17115905614891 0.5 L 121.34231811229782 0.5 L 121.34231811229782 3.5 L 128.34231811229782 0 L 121.34231811229782 -3.5 L 121.34231811229782 -0.5 L 101.17115905614891 -0.5 Z"/><text text-anchor="middle" pointer-events="none" font-size="8px" fill="#000000" x="80.67115905614891" y="3" transform="rotate(180 80.67115905614891 0)" font-family="sans-serif">_TARGET</text></g></g><g class="layer nodes"><g class="node" transform="translate(0.7764216349983428,-203.68960377031644)"><circle class="outline" cx="0" cy="0" r="40" fill="#D9C8AE" stroke="#c0a378" stroke-width="2px"/><text text-anchor="middle" pointer-events="none" font-family="sans-serif" dy="2.5" font-size="40" fill="#604A0E"/><text text-anchor="middle" pointer-events="none" y="5" font-size="10px" fill="#604A0E" font-family="sans-serif"> _Schema</text></g><g class="node" transform="translate(-246.10055073083538,69.30292845360295)"><circle class="outline" cx="0" cy="0" r="40" fill="#8DCC93" stroke="#5db665" stroke-width="2px"/><text text-anchor="middle" pointer-events="none" font-family="sans-serif" dy="2.5" font-size="40" fill="#604A0E"/><text text-anchor="middle" pointer-events="none" y="5" font-size="10px" fill="#604A0E" font-family="sans-serif"> description</text></g><g class="node" transform="translate(289.3907971923573,70.78022461636911)"><circle class="outline" cx="0" cy="0" r="40" fill="#8DCC93" stroke="#5db665" stroke-width="2px"/><text text-anchor="middle" pointer-events="none" font-family="sans-serif" dy="2.5" font-size="40" fill="#604A0E"/><text text-anchor="middle" pointer-events="none" y="5" font-size="10px" fill="#604A0E" font-family="sans-serif"> _techname</text></g><g class="node" transform="translate(-388.0670356344637,67.43187129812033)"><circle class="outline" cx="0" cy="0" r="40" fill="#4C8EDA" stroke="#2870c2" stroke-width="2px"/><text text-anchor="middle" pointer-events="none" font-family="sans-serif" dy="2.5" font-size="40" fill="#FFFFFF"/><text text-anchor="middle" pointer-events="none" y="5" font-size="10px" fill="#FFFFFF" font-family="sans-serif"> _PROP</text></g><g class="node" transform="translate(-566.5359030215602,65.18731222343393)"><circle class="outline" cx="0" cy="0" r="40" fill="#8DCC93" stroke="#5db665" stroke-width="2px"/><text text-anchor="middle" pointer-events="none" font-family="sans-serif" dy="2.5" font-size="40" fill="#604A0E"/><text text-anchor="middle" pointer-events="none" y="5" font-size="10px" fill="#604A0E" font-family="sans-serif"> _arity</text></g><g class="node" transform="translate(-0.21552758139945638,70.33415632419448)"><circle class="outline" cx="0" cy="0" r="40" fill="#D9C8AE" stroke="#c0a378" stroke-width="2px"/><text text-anchor="middle" pointer-events="none" font-family="sans-serif" dy="2.5" font-size="40" fill="#604A0E"/><text text-anchor="middle" pointer-events="none" y="5" font-size="10px" fill="#604A0E" font-family="sans-serif"> _Relation</text></g><g class="node" transform="translate(-3.2982767862466744,336.3405569525545)"><circle class="outline" cx="0" cy="0" r="40" fill="#D9C8AE" stroke="#c0a378" stroke-width="2px"/><text text-anchor="middle" pointer-events="none" font-family="sans-serif" dy="2.5" font-size="40" fill="#604A0E"/><text text-anchor="middle" pointer-events="none" y="5" font-size="10px" fill="#604A0E" font-family="sans-serif"> _Property</text></g><g class="node" transform="translate(-180.69002992913184,332.5322702071614)"><circle class="outline" cx="0" cy="0" r="40" fill="#8DCC93" stroke="#5db665" stroke-width="2px"/><text text-anchor="middle" pointer-events="none" font-family="sans-serif" dy="2.5" font-size="40" fill="#604A0E"/><text text-anchor="middle" pointer-events="none" y="5" font-size="10px" fill="#604A0E" font-family="sans-serif"> _fieldtype</text></g><g class="node" transform="translate(144.85568745583686,645.6344036334964)"><circle class="outline" cx="0" cy="0" r="40" fill="#8DCC93" stroke="#5db665" stroke-width="2px"/><text text-anchor="middle" pointer-events="none" font-family="sans-serif" dy="2.5" font-size="40" fill="#604A0E"/><text text-anchor="middle" pointer-events="none" y="5" font-size="10px" fill="#604A0E" font-family="sans-serif"> name</text></g><g class="node" transform="translate(-7.027888530726216,542.0434396715548)"><circle class="outline" cx="0" cy="0" r="40" fill="#D9C8AE" stroke="#c0a378" stroke-width="2px"/><text text-anchor="middle" pointer-events="none" font-family="sans-serif" dy="2.5" font-size="40" fill="#604A0E"/><text text-anchor="middle" pointer-events="none" y="5" font-size="10px" fill="#604A0E" font-family="sans-serif"> Person</text></g><g class="node" transform="translate(151.2865539033726,442.6586666886139)"><circle class="outline" cx="0" cy="0" r="40" fill="#8DCC93" stroke="#5db665" stroke-width="2px"/><text text-anchor="middle" pointer-events="none" font-family="sans-serif" dy="2.5" font-size="40" fill="#604A0E"/><text text-anchor="middle" pointer-events="none" y="5" font-size="10px" fill="#604A0E" font-family="sans-serif"> firstname</text></g><g class="node" transform="translate(148.73529789131055,541.1835757666204)"><circle class="outline" cx="0" cy="0" r="40" fill="#8DCC93" stroke="#5db665" stroke-width="2px"/><text text-anchor="middle" pointer-events="none" font-family="sans-serif" dy="2.5" font-size="40" fill="#604A0E"/><text text-anchor="middle" pointer-events="none" y="5" font-size="10px" fill="#604A0E" font-family="sans-serif"> lastname</text></g><g class="node" transform="translate(-177.09847447125622,542.3131802412445)"><circle class="outline" cx="0" cy="0" r="40" fill="#4C8EDA" stroke="#2870c2" stroke-width="2px"/><text text-anchor="middle" pointer-events="none" font-family="sans-serif" dy="2.5" font-size="40" fill="#FFFFFF"/><text text-anchor="middle" pointer-events="none" y="5" font-size="10px" fill="#FFFFFF" font-family="sans-serif"> LIKES</text></g><g class="node" transform="translate(-10.561603958821706,788.5612826178217)"><circle class="outline" cx="0" cy="0" r="40" fill="#FFC454" stroke="#d7a013" stroke-width="2px"/><text text-anchor="middle" pointer-events="none" font-family="sans-serif" dy="2.5" font-size="40" fill="#604A0E"/><text text-anchor="middle" pointer-events="none" y="5" font-size="10px" fill="#604A0E" font-family="sans-serif"> Bob</text></g><g class="node" transform="translate(-177.75686427422508,789.7338916944404)"><circle class="outline" cx="0" cy="0" r="40" fill="#FFC454" stroke="#d7a013" stroke-width="2px"/><text text-anchor="middle" pointer-events="none" font-family="sans-serif" dy="2.5" font-size="40" fill="#604A0E"/><text text-anchor="middle" pointer-events="none" y="5" font-size="10px" fill="#604A0E" font-family="sans-serif"> Alice Alison</text></g><g class="node" transform="translate(-187.18601255430477,-203.4834240642411)"><circle class="outline" cx="0" cy="0" r="40" fill="#8DCC93" stroke="#5db665" stroke-width="2px"/><text text-anchor="middle" pointer-events="none" font-family="sans-serif" dy="2.5" font-size="40" fill="#604A0E"/><text text-anchor="middle" pointer-events="none" y="5" font-size="10px" fill="#604A0E" font-family="sans-serif"> _schemaname</text></g><g class="node" transform="translate(-53.55661732197545,197.87690692610641)"><circle class="outline" cx="0" cy="0" r="40" fill="#8DCC93" stroke="#5db665" stroke-width="2px"/><text text-anchor="middle" pointer-events="none" font-family="sans-serif" dy="2.5" font-size="40" fill="#604A0E"/><text text-anchor="middle" pointer-events="none" y="5" font-size="10px" fill="#604A0E" font-family="sans-serif"> _sourcearity</text></g><g class="node" transform="translate(64.7440615260424,200.41866692710266)"><circle class="outline" cx="0" cy="0" r="40" fill="#8DCC93" stroke="#5db665" stroke-width="2px"/><text text-anchor="middle" pointer-events="none" font-family="sans-serif" dy="2.5" font-size="40" fill="#604A0E"/><text text-anchor="middle" pointer-events="none" y="5" font-size="10px" fill="#604A0E" font-family="sans-serif"> _targetarity</text></g><g class="node" transform="translate(-67.61223662571014,-50.45685907450131)"><circle class="outline" cx="0" cy="0" r="40" fill="#4C8EDA" stroke="#2870c2" stroke-width="2px"/><text text-anchor="middle" pointer-events="none" font-family="sans-serif" dy="2.5" font-size="40" fill="#FFFFFF"/><text text-anchor="middle" pointer-events="none" y="5" font-size="10px" fill="#FFFFFF" font-family="sans-serif"> _SOURCE</text></g><g class="node" transform="translate(73.32723227661212,-51.783330224202544)"><circle class="outline" cx="0" cy="0" r="40" fill="#4C8EDA" stroke="#2870c2" stroke-width="2px"/><text text-anchor="middle" pointer-events="none" font-family="sans-serif" dy="2.5" font-size="40" fill="#FFFFFF"/><text text-anchor="middle" pointer-events="none" y="5" font-size="10px" fill="#FFFFFF" font-family="sans-serif"> _TARGET</text></g></g></svg>